# xmcd
#
# Track frame offsets: 
#        150
#        15287
#        33402
#        49847
#        67285
#        92632
#        110095
#        128407
#        142640
#        157182
#        172432
#        187920
#        201250
#
# Disc length: 3287 seconds
#
# Revision: 0
# Processed by: cddbd v1.5PL3 Copyright (c) Steve Scherf et al.
# Submitted via: ExactAudioCopy v0.95a5
#
DISCID=b40cd50d
DTITLE=Kevin Bowe and Okemah Prophets - Angels On The Freway
DYEAR=2003
DGENRE=Country
TTITLE0=Sault Ste Marie
TTITLE1=No Riders
TTITLE2=The Land Of Cain
TTITLE3=Sweeter World
TTITLE4=Liquid Confidence
TTITLE5=Permanently Temporary
TTITLE6=Leaving To Stay
TTITLE7=Soon Enough
TTITLE8=The Horrible Truth About Anne
TTITLE9=Lonesome Angel
TTITLE10=The Heart Of Everything
TTITLE11=Coulda Shoulda Woulda
TTITLE12=Which Way The Wind Blows
EXTD=
EXTT0=
EXTT1=
EXTT2=
EXTT3=
EXTT4=
EXTT5=
EXTT6=
EXTT7=
EXTT8=
EXTT9=
EXTT10=
EXTT11=
EXTT12=
PLAYORDER=
